Jumper_states
version=1
nRows=4
nColumns=171
inDegrees=yes

# SIMM Motion File Header:
name Jumper_states
datacolumns 171
datarows 4
otherdata 1
range 0.10486816 0.10666229
endheader
time	pelvis_tilt	pelvis_list	pelvis_rotation	pelvis_tx	pelvis_ty	pelvis_tz	hip_flexion_r	hip_adduction_r	hip_rotation_r	knee_angle_r	tib_tx_r	tib_ty_r	pat_angle_r	pat_tx_r	pat_ty_r	ankle_angle_r	subtalar_angle_r	mtp_angle_r	hip_flexion_l	hip_adduction_l	hip_rotation_l	knee_angle_l	pat_angle_l	pat_tx_l	pat_ty_l	ankle_angle_l	subtalar_angle_l	mtp_angle_l	lumbar_extension	lumbar_bending	lumbar_rotation	pelvis_tilt_u	pelvis_list_u	pelvis_rotation_u	pelvis_tx_u	pelvis_ty_u	pelvis_tz_u	hip_flexion_r_u	hip_adduction_r_u	hip_rotation_r_u	knee_angle_r_u	tib_tx_r_u	tib_ty_r_u	pat_angle_r_u	pat_tx_r_u	pat_ty_r_u	ankle_angle_r_u	subtalar_angle_r_u	mtp_angle_r_u	hip_flexion_l_u	hip_adduction_l_u	hip_rotation_l_u	knee_angle_l_u	pat_angle_l_u	pat_tx_l_u	pat_ty_l_u	ankle_angle_l_u	subtalar_angle_l_u	mtp_angle_l_u	lumbar_extension_u	lumbar_bending_u	lumbar_rotation_u	glut_med1_r.activation	glut_med1_r.fiber_length	glut_med2_r.activation	glut_med2_r.fiber_length	glut_med3_r.activation	glut_med3_r.fiber_length	bifemlh_r.activation	bifemlh_r.fiber_length	bifemsh_r.activation	bifemsh_r.fiber_length	sar_r.activation	sar_r.fiber_length	add_mag2_r.activation	add_mag2_r.fiber_length	tfl_r.activation	tfl_r.fiber_length	pect_r.activation	pect_r.fiber_length	grac_r.activation	grac_r.fiber_length	glut_max1_r.activation	glut_max1_r.fiber_length	glut_max2_r.activation	glut_max2_r.fiber_length	glut_max3_r.activation	glut_max3_r.fiber_length	iliacus_r.activation	iliacus_r.fiber_length	psoas_r.activation	psoas_r.fiber_length	quad_fem_r.activation	quad_fem_r.fiber_length	gem_r.activation	gem_r.fiber_length	peri_r.activation	peri_r.fiber_length	rect_fem_r.activation	rect_fem_r.fiber_length	vas_int_r.activation	vas_int_r.fiber_length	med_gas_r.activation	med_gas_r.fiber_length	soleus_r.activation	soleus_r.fiber_length	tib_post_r.activation	tib_post_r.fiber_length	tib_ant_r.activation	tib_ant_r.fiber_length	glut_med1_l.activation	glut_med1_l.fiber_length	glut_med2_l.activation	glut_med2_l.fiber_length	glut_med3_l.activation	glut_med3_l.fiber_length	bifemlh_l.activation	bifemlh_l.fiber_length	bifemsh_l.activation	bifemsh_l.fiber_length	sar_l.activation	sar_l.fiber_length	add_mag2_l.activation	add_mag2_l.fiber_length	tfl_l.activation	tfl_l.fiber_length	pect_l.activation	pect_l.fiber_length	grac_l.activation	grac_l.fiber_length	glut_max1_l.activation	glut_max1_l.fiber_length	glut_max2_l.activation	glut_max2_l.fiber_length	glut_max3_l.activation	glut_max3_l.fiber_length	iliacus_l.activation	iliacus_l.fiber_length	psoas_l.activation	psoas_l.fiber_length	quad_fem_l.activation	quad_fem_l.fiber_length	gem_l.activation	gem_l.fiber_length	peri_l.activation	peri_l.fiber_length	rect_fem_l.activation	rect_fem_l.fiber_length	vas_int_l.activation	vas_int_l.fiber_length	med_gas_l.activation	med_gas_l.fiber_length	soleus_l.activation	soleus_l.fiber_length	tib_post_l.activation	tib_post_l.fiber_length	tib_ant_l.activation	tib_ant_l.fiber_length	ercspn_r.activation	ercspn_r.fiber_length	ercspn_l.activation	ercspn_l.fiber_length	intobl_r.activation	intobl_r.fiber_length	intobl_l.activation	intobl_l.fiber_length	extobl_r.activation	extobl_r.fiber_length	extobl_l.activation	extobl_l.fiber_length
      0.10486816	    -15.90733293	      0.03960006	      0.38293520	      0.02656205	      0.77553979	     -0.00118087	     57.65961065	     -4.99183952	      4.86703556	    -68.89317302	      0.00438411	     -0.40789200	     17.51306024	      0.03567831	     -0.02013362	     29.35716574	     14.24999998	     -0.00000000	     57.69144651	     -4.18117097	      5.17741994	    -68.76778051	     17.51218097	      0.03571360	     -0.02013676	     29.21199573	     14.24999998	     -0.00000000	    -14.54105943	      0.02045852	     -0.24724840	    100.51945934	      0.92797589	      4.92952316	      0.43334987	      1.35222289	     -0.00941421	   -294.03710423	     16.73652124	     51.80155237	    276.85686263	     -0.00186270	      0.07680357	     -1.92249812	      0.07796091	     -0.00689834	   -110.80966566	      0.00000000	      0.00000000	   -292.47203647	     23.80171315	     56.83930815	    276.93762715	     -1.96088790	      0.07790578	     -0.00695763	   -113.77915172	      0.00000000	     -0.00000000	     -7.22029409	      0.28973964	     -1.05283378	      0.72418299	      0.04177692	      0.83900306	      0.08890129	      0.99751317	      0.07716381	      0.99772837	      0.11185055	      0.43362265	      0.13608625	      0.77503205	      0.38307439	      0.99760379	      0.11326495	      0.64277410	      0.04898749	      0.99976728	      0.05516612	      0.86830187	      0.30277013	      0.99751317	      0.10565435	      0.99757506	      0.12353579	      1.00000000	      0.15859349	      0.17629153	      0.06357102	      0.20845654	      0.05839659	      1.00000000	      0.06619713	      0.98755620	      0.02836934	      0.99751317	      0.02646012	      0.96487228	      0.09268612	      0.99756390	      0.11438625	      0.82020379	      0.08317557	      0.86432950	      0.09225026	      0.99751317	      0.02879226	      0.09265112	      0.05372240	      0.72418299	      0.04177541	      0.83900306	      0.08922299	      0.99751317	      0.07768705	      0.99774837	      0.11162899	      0.43362089	      0.13614548	      0.77519216	      0.38333663	      0.99758112	      0.11247670	      0.64277410	      0.04913637	      0.99990329	      0.05478868	      0.86830187	      0.30185989	      0.99751317	      0.10593713	      0.99757506	      0.12371196	      1.00000000	      0.15833799	      0.17629153	      0.06341296	      0.20856566	      0.05825518	      1.00000000	      0.06657185	      0.98768675	      0.02899753	      0.99751317	      0.02693715	      0.96487228	      0.09248309	      0.99756518	      0.11431314	      0.81998989	      0.08315353	      0.86432951	      0.09218509	      0.99751317	      0.02877984	      0.09260418	      0.05382169	      0.99780769	      0.12916034	      0.99780679	      0.12909432	      0.27739268	      0.08413147	      0.27739268	      0.08452032	      0.15276356	      0.11499605	      0.15276356	      0.11468025
      0.10546620	    -15.84732394	      0.04016663	      0.38589227	      0.02682094	      0.77635086	     -0.00118652	     57.48360982	     -4.98170777	      4.89855831	    -68.72697965	      0.00438291	     -0.40784592	     17.51189116	      0.03572508	     -0.02013779	     29.29023132	     14.24999998	     -0.00000000	     57.51637616	     -4.16679534	      5.21196640	    -68.60152381	     17.51098855	      0.03576034	     -0.02014096	     29.14325007	     14.24999998	     -0.00000000	    -14.54520258	      0.02062055	     -0.24788058	    100.16882177	      0.96709397	      4.95987669	      0.43241668	      1.36019320	     -0.00948680	   -294.54199172	     17.13170597	     53.58885056	    278.91590922	     -0.00213914	      0.07730085	     -1.98738516	      0.07843682	     -0.00702594	   -113.03987963	      0.00000000	     -0.00000000	   -292.99597112	     24.26142597	     58.66500931	    279.04763476	     -2.02703192	      0.07839567	     -0.00708597	   -116.12393163	      0.00000000	     -0.00000000	     -6.64311752	      0.25193523	     -1.06162693	      0.72678886	      0.04176359	      0.84079866	      0.08885896	      0.99758656	      0.07711247	      0.99779540	      0.11175600	      0.43381443	      0.13616365	      0.77517987	      0.38339226	      0.99767450	      0.11310786	      0.64247094	      0.04917125	      0.99977414	      0.05518522	      0.86834528	      0.30273450	      0.99758656	      0.10558573	      0.99764663	      0.12344630	      1.00000000	      0.15843624	      0.17559746	      0.06369720	      0.20869261	      0.05851276	      1.00000000	      0.06613333	      0.98792614	      0.02836576	      0.99758656	      0.02644071	      0.96498629	      0.09274276	      0.99763579	      0.11429347	      0.82629601	      0.08311923	      0.86876344	      0.09220227	      0.99758656	      0.02877968	      0.09238014	      0.05377067	      0.72678886	      0.04176232	      0.84079866	      0.08918317	      0.99758656	      0.07763948	      0.99781481	      0.11153474	      0.43381276	      0.13622299	      0.77533430	      0.38365642	      0.99765251	      0.11231548	      0.64247094	      0.04932151	      0.99990614	      0.05480459	      0.86834528	      0.30182082	      0.99758656	      0.10587188	      0.99764663	      0.12362549	      1.00000000	      0.15818048	      0.17559746	      0.06353830	      0.20879395	      0.05837012	      1.00000000	      0.06650964	      0.98805278	      0.02899621	      0.99758656	      0.02692083	      0.96498629	      0.09254003	      0.99763704	      0.11422006	      0.82609044	      0.08309609	      0.86876346	      0.09213634	      0.99758656	      0.02876712	      0.09233368	      0.05387128	      0.99787238	      0.12916409	      0.99787150	      0.12909803	      0.27830647	      0.08412118	      0.27830647	      0.08451144	      0.15275927	      0.11498568	      0.15275927	      0.11466906
      0.10606425	    -15.78751539	      0.04075695	      0.38886791	      0.02707924	      0.77716671	     -0.00119222	     57.30731985	     -4.97136545	      4.93109936	    -68.55958527	      0.00438155	     -0.40779955	     17.51068293	      0.03577212	     -0.02014203	     29.22194163	     14.24999998	     -0.00000000	     57.34100429	     -4.15216698	      5.24755776	    -68.43403470	     17.50975622	      0.03580736	     -0.02014524	     29.07309054	     14.24999998	     -0.00000000	    -14.54901631	      0.02075992	     -0.24851845	     99.85150345	      1.00704989	      4.99151808	      0.43139387	      1.36823112	     -0.00956634	   -295.00828397	     17.44188839	     55.20896936	    280.87650129	     -0.00242054	      0.07776868	     -2.05343839	      0.07888322	     -0.00715132	   -115.34658309	      0.00000000	     -0.00000000	   -293.48435862	     24.64699983	     60.33597257	    281.06145588	     -2.09438803	      0.07885666	     -0.00721214	   -118.50886202	      0.00000000	     -0.00000000	     -6.12136973	      0.21438395	     -1.07164143	      0.72929252	      0.04174942	      0.84253171	      0.08881601	      0.99765779	      0.07706092	      0.99786045	      0.11166142	      0.43399645	      0.13624180	      0.77532245	      0.38371116	      0.99774313	      0.11295010	      0.64217443	      0.04935471	      0.99978079	      0.05520439	      0.86838727	      0.30269946	      0.99765779	      0.10551666	      0.99771607	      0.12335652	      1.00000000	      0.15827842	      0.17491221	      0.06382349	      0.20891185	      0.05862915	      1.00000000	      0.06607028	      0.98828499	      0.02836268	      0.99765779	      0.02642133	      0.96509684	      0.09279920	      0.99770556	      0.11419966	      0.83215208	      0.08306428	      0.87303723	      0.09215424	      0.99765779	      0.02876712	      0.09211191	      0.05381985	      0.72929252	      0.04174843	      0.84253171	      0.08914276	      0.99765779	      0.07759174	      0.99787929	      0.11144047	      0.43399487	      0.13630125	      0.77547140	      0.38397729	      0.99772178	      0.11215359	      0.64217443	      0.04950637	      0.99990890	      0.05482057	      0.86838727	      0.30178236	      0.99765779	      0.10580620	      0.99771607	      0.12353875	      1.00000000	      0.15802240	      0.17491221	      0.06366374	      0.20900596	      0.05848529	      1.00000000	      0.06644817	      0.98840783	      0.02899534	      0.99765779	      0.02690455	      0.96509684	      0.09259676	      0.99770677	      0.11412597	      0.83195443	      0.08304006	      0.87303724	      0.09208753	      0.99765779	      0.02875441	      0.09206591	      0.05392182	      0.99793515	      0.12916764	      0.99793431	      0.12910154	      0.27919757	      0.08411130	      0.27919757	      0.08450297	      0.15275415	      0.11497574	      0.15275415	      0.11465830
      0.10666229	    -15.72788332	      0.04137094	      0.39186274	      0.02733691	      0.77798740	     -0.00119796	     57.13075655	     -4.96086126	      4.96456234	    -68.39104302	      0.00438001	     -0.40775291	     17.50943481	      0.03581942	     -0.02014634	     29.15224329	     14.24999998	     -0.00000000	     57.16534530	     -4.13732971	      5.28410551	    -68.26536609	     17.50848322	      0.03585466	     -0.02014959	     29.00148899	     14.24999998	     -0.00000000	    -14.55253840	      0.02087745	     -0.24916241	     99.58064369	      1.04595576	      5.02397852	      0.43029245	      1.37636169	     -0.00965123	   -295.45976368	     17.67423355	     56.67407606	    282.75765766	     -0.00270675	      0.07821240	     -2.12076928	      0.07930557	     -0.00727482	   -117.75422871	      0.00000000	     -0.00000000	   -293.95967965	     24.96062814	     61.86563925	    282.99486283	     -2.16304755	      0.07929330	     -0.00733641	   -120.95021539	      0.00000000	     -0.00000000	     -5.67008042	      0.17919579	     -1.08187258	      0.73169840	      0.04173440	      0.84420456	      0.08877246	      0.99772690	      0.07700920	      0.99792358	      0.11156681	      0.43416922	      0.13632067	      0.77545997	      0.38403098	      0.99780972	      0.11279172	      0.64188443	      0.04953787	      0.99978725	      0.05522363	      0.86842789	      0.30266505	      0.99772690	      0.10544715	      0.99778347	      0.12326647	      1.00000000	      0.15812005	      0.17423563	      0.06394985	      0.20911546	      0.05874577	      1.00000000	      0.06600794	      0.98863307	      0.02836007	      0.99772690	      0.02640198	      0.96520404	      0.09285542	      0.99777327	      0.11410484	      0.83778337	      0.08301066	      0.87715771	      0.09210615	      0.99772690	      0.02875456	      0.09184638	      0.05386998	      0.73169840	      0.04173374	      0.84420456	      0.08910180	      0.99772690	      0.07754384	      0.99794186	      0.11134618	      0.43416771	      0.13638026	      0.77560365	      0.38429913	      0.99778901	      0.11199111	      0.64188443	      0.04969096	      0.99991159	      0.05483661	      0.86842789	      0.30174455	      0.99772690	      0.10574011	      0.99778347	      0.12345175	      1.00000000	      0.15786380	      0.17423563	      0.06378927	      0.20920288	      0.05860068	      1.00000000	      0.06638741	      0.98875223	      0.02899490	      0.99772690	      0.02688829	      0.96520404	      0.09265326	      0.99777444	      0.11403086	      0.83759328	      0.08298538	      0.87715772	      0.09203865	      0.99772690	      0.02874171	      0.09180086	      0.05397334	      0.99799607	      0.12917100	      0.99799525	      0.12910486	      0.28006750	      0.08410182	      0.28006750	      0.08449488	      0.15274819	      0.11496620	      0.15274819	      0.11464797
